<?xml version="1.0" encoding="utf-8"?>
<!-- Generator: Adobe Illustrator 27.5.0, SVG Export Plug-In . SVG Version: 6.00 Build 0)  -->
<svg version="1.1" xmlns="http://www.w3.org/2000/svg" xmlns:xlink="http://www.w3.org/1999/xlink" x="0px" y="0px"
	 viewBox="0 0 750 500" style="enable-background:new 0 0 750 500;" xml:space="preserve">
<g id="BACKGROUND">
	<rect style="fill:#E9E4CF;" width="750" height="500"/>
</g>
<g id="OBJECTS">
	<path style="fill:#faf7e3;" d="M51.861,152.758c-0.514,26.176,9.72,48.343,19.396,71.947c22.102,44.327-0.309,91.123,1.99,137.202
		c3.796,41.488,35.414,77.966,74.779,91.609c94.276,30.935,171.109-66.647,266.299-45.412c61.639,6.825,114.823,50.23,177.2,48.778
		c39.554-1.139,84.121-24.396,85.669-68.465c-5.551-53.402-35.977-75.259-16.228-139.814c8.803-28.847,26.729-54.741,31.901-84.457
		c14.287-80.704-65.038-134.978-139.451-120.712c-69.488,10.721-131.293,59.18-203.755,51.805
		c-48.296-3.749-87.071-38.918-132.802-49.966C139.053,25.822,53.588,64.752,51.861,152.758z"/>
	<g>
		<path style="fill:#FFFFFF;" d="M103.33,483.08c0.958-9.352,8.694-17.589,17.967-19.131c9.273-1.543,19.259,3.747,23.193,12.285
			c3.078-4.659,9.057-7.207,14.549-6.2c5.492,1.007,10.178,5.511,11.402,10.959c3.297-4.01,8.746-6.136,13.887-5.417
			c5.142,0.719,9.798,4.257,11.869,9.018"/>
		<path style="fill:#FFFFFF;" d="M669.891,277.745c2.001-10.088,9.606-19.726,20.266-20.988c9.463-1.12,19.327,4.66,22.976,13.463
			c2.884-4.933,9.267-7.518,14.771-5.982c7.158,1.998,9.228,8.667,10.666,15.066"/>
		<path style="fill:#FFFFFF;" d="M227.669,31.508c1.533-7.731,7.362-15.118,15.531-16.085c7.252-0.858,14.812,3.571,17.608,10.318
			c2.21-3.781,7.102-5.762,11.32-4.585c5.486,1.531,7.072,6.642,8.174,11.547"/>
		<path style="fill:#FFFFFF;" d="M520.731,31.455c-1.425-7.183-6.84-14.047-14.432-14.946c-6.739-0.797-13.763,3.318-16.361,9.587
			c-2.054-3.513-6.599-5.354-10.518-4.26c-5.097,1.423-6.572,6.172-7.595,10.729"/>
		<path style="fill:#FFFFFF;" d="M657.447,480.599c1.709-4.156,5.503-7.391,9.877-8.42c4.374-1.03,9.213,0.173,12.596,3.13
			c0.957-5.461,4.685-10.361,9.692-12.741c5.007-2.38,11.161-2.176,16,0.529c4.839,2.706,8.234,7.842,8.828,13.354
			c2.446-2.486,6.194-3.613,9.605-2.889c3.412,0.724,6.378,3.277,7.603,6.543"/>
		<path style="fill:#FFFFFF;" d="M13.791,315.432c0.933-6.654,6.767-12.3,13.447-13.016c6.681-0.716,13.578,3.566,15.899,9.871
			c1.446-4.678,7.283-7.01,11.988-5.657c4.705,1.354,8.164,5.544,9.92,10.115"/>
		<path style="fill:#FFFFFF;" d="M739.384,45.419c-2.388-5.736-4.437-11.089-10.992-12.997c-4.655-1.354-9.972-0.14-13.578,3.101
			c-4.206-9.525-14.573-15.965-24.975-15.515c-10.403,0.45-20.175,7.76-23.543,17.612c-3.28-3.339-8.467-4.66-12.945-3.295
			c-4.478,1.365-8.047,5.354-8.907,9.955"/>
		<path style="fill:#FFFFFF;" d="M91.19,27.768c1.536-3.636,4.688-6.553,8.432-7.804c3.744-1.251,8.017-0.814,11.43,1.169
			c4.715-5.977,12.384-9.5,19.99-9.184c7.606,0.316,14.956,4.463,19.159,10.811c2.831-3.056,7.299-4.495,11.381-3.665
			c4.082,0.83,7.634,3.899,9.048,7.817"/>
	</g>
	<g>
		<defs>
			<rect id="SVGID_1_" width="750" height="500"/>
		</defs>
		<clipPath id="SVGID_00000059295389970406447590000005587072587657811887_">
			<use xlink:href="#SVGID_1_"  style="overflow:visible;"/>
		</clipPath>
		<g style="clip-path:url(#SVGID_00000059295389970406447590000005587072587657811887_);">
			<g>
				<path style="fill:#A35B34;" d="M-25.22,535.796c9.848-42.839,30.611-83.123,59.787-116c8.709,2.66,16.599,5.74,24.065,10.954
					c5.052,66.177-1.526,144.233-53.052,191.607L-25.22,535.796z"/>
				<g>
					<g>
						<path style="fill:#FFE101;" d="M15.331,438.053c-0.43,2.197,0.543,4.604,2.377,5.887c1.834,1.283,4.43,1.369,6.345,0.211
							c1.309-0.791,2.287-2.128,2.6-3.625c0.372-1.782-0.237-3.737-1.555-4.992C21.848,432.44,16.258,433.313,15.331,438.053z"/>
						<path style="fill:#FFE101;" d="M25.26,444.907c0.091,2.043,1.668,3.929,3.663,4.38c1.301,0.294,2.699,0.012,3.852-0.658
							c1.625-0.945,2.786-2.704,2.875-4.582c0.089-1.878-0.961-3.798-2.653-4.617C29.632,437.8,25.102,441.349,25.26,444.907z"/>
						<path style="fill:#FFE101;" d="M34.242,449.613c0.016,2.187,1.281,4.429,3.33,5.195c1.915,0.716,4.205,0.003,5.569-1.52
							c1.644-1.836,1.93-4.757,0.672-6.877c-1.153-1.942-3.975-3.396-6.26-2.858C35.292,444.086,34.227,447.615,34.242,449.613z"/>
						<path style="fill:#FFE101;" d="M44.083,451.139c-0.677,1.36-0.691,3.054,0.051,4.38c0.672,1.201,1.929,2.044,3.288,2.259
							c1.853,0.294,3.841-0.615,4.829-2.21c0.988-1.595,0.918-3.78-0.17-5.308C49.91,447.214,45.668,447.957,44.083,451.139z"/>
						<path style="fill:#FFE101;" d="M52.198,455.67c-0.446,1.781,0.144,3.765,1.437,5.068c1.293,1.303,3.23,1.908,5.047,1.648
							c1.04-0.149,2.071-0.588,2.754-1.386c0.645-0.753,0.928-1.767,0.947-2.758c0.03-1.566-0.581-3.136-1.662-4.27
							C57.99,451.106,53.266,451.401,52.198,455.67z"/>
					</g>
					<path style="fill:none;stroke:#FFFFFF;stroke-linecap:round;stroke-linejoin:round;stroke-miterlimit:10;" d="M9.679,447.782
						c13.965,14.118,32.392,23.755,51.953,27.172"/>
				</g>
			</g>
			<g>
				<polygon style="fill:#66C476;" points="50.141,440.825 64.715,448.082 135.35,436.22 117.199,343.343 48.513,356.767 				"/>
				<g>
					<g>
						<polygon style="fill:#FFFFFF;" points="41.655,352.277 107.245,339.458 114.471,348.51 130.765,431.884 64.815,444.773 
							54.377,438.695 						"/>
						
							<line style="fill:none;stroke:#D5CCBF;stroke-linecap:round;stroke-linejoin:round;stroke-miterlimit:10;" x1="110.346" y1="343.343" x2="117.823" y2="379.146"/>
						
							<line style="fill:none;stroke:#D5CCBF;stroke-linecap:round;stroke-linejoin:round;stroke-miterlimit:10;" x1="128.014" y1="429.554" x2="119.994" y2="386.227"/>
					</g>
					<g>
						<polygon style="fill:#E9E4CF;" points="130.765,431.884 124.227,426.346 56.051,439.67 65.1,445.334 						"/>
						<path style="fill:#D5CCBF;" d="M61.749,440.083c4.61,0.466,6.965,1.172,7.066,2.118c0.056,0.53-0.597,1.136-1.959,1.817
							C65.154,442.706,63.451,441.394,61.749,440.083z"/>
						
							<line style="fill:none;stroke:#D5CCBF;stroke-linecap:round;stroke-linejoin:round;stroke-miterlimit:10;" x1="71.695" y1="439.179" x2="110.346" y2="431.738"/>
						
							<line style="fill:none;stroke:#D5CCBF;stroke-linecap:round;stroke-linejoin:round;stroke-miterlimit:10;" x1="122.291" y1="431.419" x2="78.121" y2="440.825"/>
					</g>
				</g>
				<g>
					<polygon style="fill:#66C476;" points="34.447,347.905 50.141,440.825 124.227,426.346 106.157,333.891 					"/>
					<g>
						<path style="fill:#8AD997;" d="M98.35,360.774c-16.654,5.359-33.565,10.427-50.22,15.786
							c-2.016-7.315-4.033-14.629-6.049-21.944c18.985-3.127,37.645-7.83,56.341-12.356
							C98.471,348.344,98.302,354.689,98.35,360.774z"/>
						<polygon style="fill:#66C476;" points="52.967,361.005 90.139,351.958 89.86,356.482 53.984,364.206 						"/>
					</g>
					<g>
						<path style="fill:#8AD997;" d="M51.603,394.932c-7.609,37.805,47.801,49.279,57.815,10.659
							c5.894-22.336-17.316-39.23-40.061-30.941C61.177,377.632,53.454,385.648,51.603,394.932z"/>
						<g>
							<path style="fill:#66C476;" d="M74.949,389.401c0.142,0.891,0.664,0.156,0.83-0.227c0.239-0.553,0.397-1.141,0.475-1.738
								c0.151-1.16-0.004-2.363-0.476-3.435c-0.176-0.401-0.375-0.921-0.061-1.226c0.255-0.248,0.691-0.155,0.982,0.05
								c0.291,0.205,0.517,0.5,0.832,0.666c0.315,0.166,0.788,0.133,0.931-0.193c0.179-1.475-0.215-3.012-1.083-4.218
								c-0.868-1.206-2.2-2.069-3.655-2.368c-1.719-0.353-3.509,0.065-5.147,0.697c-2.805,1.081-5.064,2.875-7.397,4.694
								c-1.193,0.93-2.159,2.51-3.012,3.744c-0.464,0.672-0.905,1.359-1.322,2.062c-0.341,0.574-0.622,1.46-1.072,1.94
								c0.775-0.826,2.155-0.534,3.153,0.001c0.999,0.535,2.003,1.276,3.131,1.167c1.133-0.11,1.981-1.04,2.954-1.631
								c0.703-0.427,1.827-0.663,2.546-0.142c0.886,0.642,0.118,2.027-0.873,1.983c-0.184-0.008-0.365-0.059-0.55-0.058
								c-0.185,0.001-0.386,0.069-0.473,0.232c-0.083,0.156-0.036,0.346,0.011,0.516c0.507,1.797,1.014,3.595,1.521,5.392
								c0.054,0.191,0.12,0.399,0.288,0.505c0.282,0.179,0.677-0.071,0.771-0.392s-0.016-0.662-0.125-0.978
								c-0.218-0.632-0.436-1.265-0.654-1.897c-0.102-0.296-0.191-0.661,0.021-0.89c0.147-0.159,0.397-0.186,0.601-0.113
								c0.203,0.073,0.366,0.228,0.504,0.394c1.098,1.312,1.842,2.694,3.458,3.483c1.245,0.607,2.724,0.766,4.037,0.329
								c0.744-0.248,1.388-0.687,1.928-1.251c0.454-0.475,0.536-1.398,1.237-1.603c0.35-0.102,0.729,0.037,1.024,0.251
								c2.54,1.849-1.12,5.032-0.341,7.251c0.205,0.584,0.633,1.068,0.841,1.65c0.399,1.117-0.078,2.345-0.627,3.397
								c-0.55,1.051-1.199,2.134-1.154,3.319c0.039,1.024,0.613,1.977,1.388,2.648c0.775,0.671,1.735,1.092,2.709,1.411
								c1.672,0.548,3.432,0.826,5.191,0.821c1.344-0.004,2.693-0.173,4.028-0.022c1.335,0.151,2.707,0.68,3.49,1.772
								c0.388,0.541,0.608,1.186,0.988,1.732c0.38,0.546,1.009,1.009,1.664,0.892c0.087-6.107-0.382-12.222-1.399-18.244
								c-0.168-0.992-0.383-2.047-1.093-2.76c-0.767-0.771-1.933-0.961-3.019-1.028c-1.086-0.066-2.222-0.06-3.187-0.562
								c-0.638-0.331-1.148-0.859-1.719-1.295c-0.572-0.436-1.269-0.795-1.981-0.696c-0.937,0.131-1.723,1.029-2.657,0.877
								c-0.743-0.121-1.205-0.851-1.57-1.51c-0.689-1.245-1.483-2.416-2.186-3.666c-0.255-0.454-0.596-0.964-1.116-0.991
								c-1.291-0.067-0.994,1.647-1.101,2.406c-0.203,1.446-1.457,1.722-2.6,1.01c-0.907-0.565-1.619-1.474-1.839-2.52
								c-0.219-1.046,0.099-2.215,0.896-2.927c0.256-0.229,0.651-0.41,0.929-0.208c0.213,0.154,0.246,0.458,0.209,0.718
								C74.997,388.882,74.908,389.142,74.949,389.401z"/>
							<path style="fill:#66C476;" d="M107.34,392.637c-8.169-8.651-8.492,1.504-12.354-1.968c-1.143-2.936-3.863-3.219-6.523-3.326
								c-2.221-2.56,3.37-3.254,3.002-5.655c-1.33-1.908,1.159-5.227-1.131-6.109C97.639,378.393,105.122,384.253,107.34,392.637z"
								/>
							<path style="fill:#66C476;" d="M70.699,426.312c1.196-1.514,1.983-3.346,2.259-5.255c0.149-1.034,0.034-2.304-0.885-2.801
								c-1.102-0.596-2.427,0.374-3.674,0.262c-1.455-0.131-2.378-1.724-2.44-3.184c-0.062-1.46,0.468-2.874,0.683-4.319
								c0.215-1.445,0.018-3.124-1.136-4.02c-0.817-0.634-1.922-0.728-2.86-1.161c-1.709-0.79-2.739-2.83-2.359-4.674
								c0.104-0.504,0.3-0.991,0.331-1.505c0.031-0.513-0.153-1.089-0.612-1.322c-0.482-0.245-1.064-0.029-1.542,0.224
								c-2.442,1.292-3.982,4.126-5.194,6.537c0.623,4.859,2.624,9.559,5.771,13.314C62.185,422.162,66.023,424.847,70.699,426.312z
								"/>
						</g>
					</g>
				</g>
				<polyline style="fill:none;stroke:#280805;stroke-linecap:round;stroke-linejoin:round;stroke-miterlimit:10;" points="
					107.245,339.458 124.227,426.346 56.051,439.67 65.1,445.334 				"/>
			</g>
			<path style="fill:#A35B34;" d="M33.78,425.399c-0.398-1.393-0.441-2.667-0.519-4.305c-0.21-4.398-0.42-8.796-0.631-13.195
				c-0.111-2.329-0.217-4.708,0.435-6.946c0.685-2.351,2.156-4.381,3.601-6.358c2.765-3.783,5.53-7.566,8.295-11.35
				c0.513-0.701,1.14-1.469,2.008-1.517c1.109-0.063,1.882,1.063,2.322,2.083c1.913,4.44,1.967,9.648,0.145,14.127
				c-0.27,0.663-0.528,1.492-0.935,2.082c-0.314,0.456-0.769,0.73-1.064,1.21c-0.688,1.122-0.47,2.691-0.26,3.916
				c0.731,4.257,1.638,8.506,1.781,12.822c0.143,4.317-0.53,8.776-2.754,12.479c-0.958,1.596-2.329,3.111-4.152,3.491
				c-4.474,0.931-6.394-3.977-7.79-7.199C34.06,426.272,33.903,425.83,33.78,425.399z"/>
		</g>
		<g style="clip-path:url(#SVGID_00000059295389970406447590000005587072587657811887_);">
			<g>
				<polygon style="fill:#ff8a05;" points="686.144,199.535 591.519,176.164 623.435,68.954 706.824,98.237 				"/>
				<g>
					<polygon style="fill:#FFFFFF;" points="595.919,162.143 600.931,172.343 684.261,195.689 687.675,177.705 598.633,150.322 
											"/>
					<path style="fill:#D5CCBF;" d="M675.256,185.624c-3.144-0.73-5.669-0.593-6.128,0.447c-0.588,1.331,2.37,3.769,2.681,4.021
						c2.467,2.002,5.224,2.44,6.702,2.553C677.426,190.305,676.341,187.965,675.256,185.624z"/>
					
						<line style="fill:none;stroke:#D5CCBF;stroke-linecap:round;stroke-linejoin:round;stroke-miterlimit:10;" x1="601.469" y1="167.018" x2="663.99" y2="183.965"/>
					
						<line style="fill:none;stroke:#D5CCBF;stroke-linecap:round;stroke-linejoin:round;stroke-miterlimit:10;" x1="614.011" y1="173.912" x2="649.172" y2="183.129"/>
				</g>
				<g>
					<polygon style="fill:#ff8a05;" points="701.347,86.895 624.867,62.62 589.633,160.662 677.985,184.746 686.143,199.535 
						706.825,98.237 					"/>
					<polygon style="fill:#ffdbb0;" points="701.985,95.957 697.581,112.868 701.155,116.321 704.346,101.001 					"/>
					<path style="fill:#ffdbb0;" d="M695.315,90.725c-7.532-1.277-13.079-1.675-18.427-0.741
						c-5.347,0.935-10.621,2.909-14.748,6.437c-3.976,3.399-6.676,8.035-9.018,12.712c-2.342,4.678-4.426,9.528-7.489,13.768
						c-3.064,4.24-7.292,7.902-12.394,9.058c-8.44,1.912-19.441-3.287-27.446,0.001c-3.199,7.018-6.799,16.429-10.353,24.537
						c12.023,2.218,24.735,2.338,36.51-0.951c11.775-3.289,22.718-10.948,27.932-22.006c2.351-4.985,3.476-10.446,5.307-15.645
						c1.831-5.198,4.571-10.367,9.173-13.4c4.601-3.034,13.067-3.14,16.836,0.881L695.315,90.725z"/>
					<path style="fill:#ffdbb0;" d="M612.137,120.994c5.181,1.586,10.648,3.187,15.937,2.012
						c5.764-1.281,10.536-5.952,12.356-11.569c1.82-5.617,0.798-11.987-2.314-17.004c-3.111-5.018-8.181-8.692-13.79-10.538
						L612.137,120.994z"/>
					<path style="fill:#ffdbb0;" d="M673.453,176.001c-5.253-1.013-11.319-4.827-14.543-9.097
						c-3.224-4.27-4.316-10.289-2.051-15.137c1.839-3.938,5.698-6.747,9.917-7.789c4.22-1.041,9.649-0.681,13.672,0.964
						L673.453,176.001z"/>
					<polyline style="fill:none;stroke:#280805;stroke-linecap:round;stroke-linejoin:round;stroke-miterlimit:10;" points="
						701.347,86.895 677.985,184.746 684.261,195.689 					"/>
				</g>
			</g>
			<g>
				<g>
					<path style="fill:#C27F5B;" d="M696.891,169.77c-16.537-1.183-32.321-10.351-41.542-24.13
						c-1.287-1.923-2.485-4.037-2.574-6.349c-0.073-1.895,1.161-5.277,3.522-5.101c2.465,0.184,4.013,2.407,5.874,3.625
						c-3.437-2.248-6.117-5.632-7.518-9.492c-0.628-1.732-0.954-3.82,0.153-5.293c1.207-1.606,3.688-1.739,5.487-0.845
						c1.799,0.894,3.075,2.553,4.286,4.156c-1.024-1.17-2.06-2.36-2.731-3.763c-0.671-1.403-0.941-3.071-0.375-4.519
						c0.565-1.449,2.11-2.559,3.643-2.304c0.961,0.16,1.766,0.791,2.525,1.401c2.247,1.806,4.495,3.612,6.742,5.418
						c-1.335-2.154-2.957-6.721-0.515-8.665c1.292-1.029,3.222-0.89,4.676-0.107c2.825,1.521,4.397,5.268,6.128,7.85
						c2.206,3.291,4.411,6.582,6.617,9.873c0.64,0.955,1.295,1.926,2.201,2.633c0.906,0.707,2.122,1.118,3.223,0.788
						c2.331-0.697,2.524-3.741,3.097-5.708c0.754-2.587,1.507-5.174,2.261-7.76c3.901,10.132,5.962,20.969,6.053,31.826
						L696.891,169.77z"/>
					<g>
						<path style="fill:none;stroke:#280805;stroke-linecap:round;stroke-linejoin:round;stroke-miterlimit:10;" d="
							M674.126,122.689c3.877,7.27,9.118,13.809,15.367,19.178"/>
						<path style="fill:none;stroke:#280805;stroke-linecap:round;stroke-linejoin:round;stroke-miterlimit:10;" d="
							M662.549,124.216c4.347,7.835,10.466,14.68,17.768,19.873"/>
						<path style="fill:none;stroke:#280805;stroke-linecap:round;stroke-linejoin:round;stroke-miterlimit:10;" d="M659.672,135.13
							c4.084,6.507,10.112,11.777,17.106,14.956"/>
					</g>
				</g>
				<g>
					<path style="fill:#66C476;" d="M824.933,207.548c-33.177-28.835-73.674-49.179-116.613-58.584
						c-5.474,7.277-10.04,14.411-13.006,23.021c34.869,56.472,86.132,115.701,155.672,123.669L824.933,207.548z"/>
					<path style="fill:#8AD997;" d="M703.178,175.211c0.972-0.248,1.704-1.102,2.044-2.046c0.885-2.462-1.655-5.612-4.095-3.672
						C698.943,171.228,699.909,176.044,703.178,175.211z"/>
					<g>
						<path style="fill:none;stroke:#8AD997;stroke-miterlimit:10;" d="M708.244,178.489c23.972,28.811,51.905,54.321,82.766,75.589
							"/>
						<path style="fill:none;stroke:#8AD997;stroke-miterlimit:10;" d="M711.825,170.96c25.77,20.862,50.599,42.884,74.389,65.978"
							/>
						<path style="fill:none;stroke:#8AD997;stroke-miterlimit:10;" d="M717.274,158.332c29.425,10.057,57.577,23.833,83.574,40.895
							"/>
						<path style="fill:none;stroke:#8AD997;stroke-miterlimit:10;" d="M715.504,165.551c30.883,16.479,60.951,34.485,90.058,53.93"
							/>
					</g>
					<path style="fill:none;stroke:#280805;stroke-linecap:round;stroke-linejoin:round;stroke-miterlimit:10;" d="M703.396,182.657
						c6.79-9.134,11.717-19.647,14.391-30.71"/>
				</g>
			</g>
		</g>
		<g style="clip-path:url(#SVGID_00000059295389970406447590000005587072587657811887_);">
			<g>
				<path style="fill:#FFA778;" d="M830.579,398.626c-14.893-8.967-30.316-17.168-46.614-23.216
					c-16.298-6.047-33.189-9.248-50.572-9.379c0.121,5.774-0.898,11.569-2.981,16.956c21.069,36.117,54.867,64.6,94.429,78.135
					L830.579,398.626z"/>
				<g>
					<path style="fill:#FFA778;" d="M740.264,375.63c-0.984,4.289-3.793,7.983-7.161,10.814c-3.369,2.831-7.299,4.898-11.195,6.944
						c-3.102,1.628-6.272,3.28-9.73,3.843c-3.458,0.564-7.315-0.14-9.747-2.662c-3.794-3.936-2.717-10.512-0.064-15.292
						c2.653-4.78,6.613-8.891,8.285-14.095c1.623-5.053,1.024-10.906,4.714-15.14c2.954-3.389,6.789-4.186,10.644-1.852
						C734.343,353.233,742.547,365.681,740.264,375.63z"/>
					<path style="fill:#FF7C54;" d="M715.78,360.114c3.751-0.585,7.655,1.138,10.161,3.991c2.505,2.853,3.703,6.697,3.816,10.492
						c0.071,2.399-0.428,5.093-2.388,6.48c-1.344,0.951-3.107,1.078-4.745,0.913c-3.429-0.345-6.73-1.856-9.233-4.225
						c-2.503-2.369-4.192-5.581-4.726-8.986c-0.395-2.52-0.118-5.261,1.376-7.328c1.495-2.066,4.407-3.208,6.728-2.151"/>
				</g>
			</g>
			<g>
				<g>
					<path style="fill:#FFA778;" d="M554.878,503.31c1.297-5.312,1.78-10.794,3.865-15.828c2.628-6.345,5.439-12.614,8.429-18.797
						c5.979-12.365,12.671-24.386,20.035-35.981c1.259,2.946,4.941,3.877,8.134,4.14c3.193,0.263,6.767,0.389,8.984,2.702
						c1.498,1.561,2.019,3.794,2.433,5.917c4.525,23.18,3.419,47.438-3.195,70.11L554.878,503.31z"/>
					<path style="fill:#66C476;" d="M610.858,480.588c-2.382-2.815-5.842-4.452-9.222-5.928
						c-10.45-4.563-21.455-8.421-32.439-11.484c1.646-4.159,3.292-8.317,4.938-12.476c13.144,2.094,25.731,8.568,36.025,17.005
						C610.542,471.876,610.475,476.418,610.858,480.588z"/>
					
						<ellipse transform="matrix(0.2288 -0.9735 0.9735 0.2288 5.0258 935.2475)" style="fill:#FFFFFF;" cx="592.761" cy="464.452" rx="10.149" ry="10.149"/>
				</g>
				<g>
					<path style="fill:#FFA778;" d="M585.057,425.319c0.796,5.613,3.475,10.831,6.938,15.32c1.414,1.832,2.994,3.588,4.975,4.785
						c1.981,1.197,4.421,1.786,6.65,1.164c3.339-0.933,5.408-4.243,6.718-7.453c4.906-12.026,3.335-26.48-4.042-37.17
						c-0.915-1.326-1.931-2.615-3.24-3.554c-1.309-0.939-2.954-1.502-4.544-1.238c-1.896,0.316-3.411,1.721-4.678,3.166
						c-2.875,3.281-4.65,6.841-6.245,10.832C585.696,415.906,584.32,420.124,585.057,425.319z"/>
					<path style="fill:#FF7C54;" d="M592.226,431.911c1.141,2.477,2.736,4.806,4.3,7.053c1.208,1.734,2.551,3.574,4.555,4.245
						c2.608,0.873,5.538-0.612,7.193-2.808c1.601-2.125,1.87-4.561,2.842-6.939c0.947-2.318,1.032-4.272,0.71-6.824
						c-0.339-2.684-0.856-5.383-2.032-7.819c-1.176-2.436-3.078-4.608-5.574-5.652c-4.422-1.85-8.448,0.418-11.107,4.139
						c-1.838,2.573-2.728,5.807-2.466,8.958C590.811,428.241,591.399,430.115,592.226,431.911z"/>
				</g>
			</g>
			<g>
				<polygon style="fill:#6480C1;" points="693.865,437.092 682.017,444.185 610.716,464.295 579.151,383.885 643.252,361.012 
					654.876,354.961 692.088,311.466 738.42,392.279 				"/>
				<g>
					<path style="fill:#E9E4CF;" d="M729.718,394.544l-1.065-9.319c-5.454,3.86-11.291,8.51-17.195,14.092
						c-12.513,11.831-21.236,23.983-27.234,34.037c-7.661-0.891-20.363-1.395-35.213,2.721
						c-15.954,4.422-27.147,12.171-33.291,17.139l-30.687-80.064l0.857,13.189l28.657,72.499l66.249-17.534l5.446-3.817
						l-0.012-0.025l5.093-1.852L729.718,394.544z"/>
					<g>
						<path style="fill:none;stroke:#D5CCBF;stroke-linecap:round;stroke-linejoin:round;stroke-miterlimit:10;" d="
							M630.374,450.701c14.72-8.569,32.017-9.938,48.345-13.536"/>
						<path style="fill:none;stroke:#D5CCBF;stroke-linecap:round;stroke-linejoin:round;stroke-miterlimit:10;" d="
							M691.869,430.065c9.043-12.654,19.302-24.438,30.59-35.137"/>
					</g>
				</g>
				<g>
					<path style="fill:#FFFFFF;" d="M687.388,311.9c-4.665,1.112-17.57,4.836-28.127,16.958
						c-9.099,10.448-11.634,21.601-12.444,26.465c-6.789-0.848-17.645-1.345-30.338,1.905
						c-15.218,3.896-25.812,11.317-31.445,15.923c10.229,26.688,20.458,53.376,30.687,80.064
						c8.363-4.368,18.812-8.992,31.205-12.745c14.187-4.297,26.97-6.255,37.299-7.115c5.343-8.976,13.022-19.875,23.88-30.768
						c7.147-7.17,14.211-12.872,20.549-17.362C714.898,360.784,701.143,336.342,687.388,311.9z"/>
					<polyline style="fill:none;stroke:#280805;stroke-linecap:round;stroke-linejoin:round;stroke-miterlimit:10;" points="
						646.816,355.324 684.224,433.355 686.23,437.463 					"/>
					<g>
						<path style="fill:none;stroke:#D5CCBF;stroke-linecap:round;stroke-linejoin:round;stroke-miterlimit:10;" d="
							M595.024,377.822c13.276-10.813,30.83-16.22,47.889-14.75"/>
						<path style="fill:none;stroke:#D5CCBF;stroke-linecap:round;stroke-linejoin:round;stroke-miterlimit:10;" d="
							M601.693,386.613c11.831-10.323,27.881-15.657,43.538-14.471"/>
						<path style="fill:none;stroke:#D5CCBF;stroke-linecap:round;stroke-linejoin:round;stroke-miterlimit:10;" d="M649.518,381.47
							c-9.576-0.026-19.146,2.519-27.444,7.298"/>
						<path style="fill:none;stroke:#D5CCBF;stroke-linecap:round;stroke-linejoin:round;stroke-miterlimit:10;" d="
							M607.207,409.183c11.943-11.562,28.557-18.155,45.178-17.928"/>
						<path style="fill:none;stroke:#D5CCBF;stroke-linecap:round;stroke-linejoin:round;stroke-miterlimit:10;" d="
							M623.054,408.905c10.973-6.303,23.428-10.007,36.063-10.722"/>
						<path style="fill:none;stroke:#D5CCBF;stroke-linecap:round;stroke-linejoin:round;stroke-miterlimit:10;" d="
							M615.776,421.975c14.077-9.408,30.442-15.365,47.273-17.207"/>
						<path style="fill:none;stroke:#D5CCBF;stroke-linecap:round;stroke-linejoin:round;stroke-miterlimit:10;" d="M620.704,431.39
							c13.876-8.017,29.283-13.376,45.139-15.7"/>
					</g>
					<g>
						<path style="fill:none;stroke:#D5CCBF;stroke-linecap:round;stroke-linejoin:round;stroke-miterlimit:10;" d="M656.944,355.83
							c6.215-11.59,15.655-21.429,26.978-28.117"/>
						<path style="fill:none;stroke:#D5CCBF;stroke-linecap:round;stroke-linejoin:round;stroke-miterlimit:10;" d="M666.75,371.784
							c4.555-12.687,13.571-23.723,25.095-30.716"/>
						<path style="fill:none;stroke:#D5CCBF;stroke-linecap:round;stroke-linejoin:round;stroke-miterlimit:10;" d="
							M673.414,382.575c3.958-9.109,11.059-16.816,19.814-21.505"/>
						<path style="fill:none;stroke:#D5CCBF;stroke-linecap:round;stroke-linejoin:round;stroke-miterlimit:10;" d="
							M662.476,360.934c4.735-11.127,13.517-20.48,24.324-25.906"/>
						<path style="fill:#D5CCBF;" d="M718.647,381.446c-3.764-5.833-7.747-11.828-11.511-17.66
							c-10.253,5.173-19.144,13.016-25.555,22.544c-1.559,2.317-2.994,4.778-3.647,7.494c2.811,6.259,5.135,12.801,7.946,19.059
							C693.56,399.683,705.012,388.324,718.647,381.446z"/>
					</g>
				</g>
			</g>
			<path style="fill:#FFA778;" d="M583.902,420.564c1.336-8.216,8.271-14.898,8.753-23.207c0.097-1.67,0.086-3.679,1.501-4.572
				c0.795-0.502,1.853-0.454,2.703-0.051c0.85,0.403,1.516,1.116,2.054,1.887c2.329,3.338,2.469,7.761,1.717,11.762
				c-0.751,4-2.292,7.819-3.051,11.818c-0.787,4.147-0.747,8.529-2.502,12.368c-0.812,1.776-2.256,3.534-4.206,3.655
				c-1.189,0.073-2.352-0.503-3.2-1.34c-0.848-0.837-1.419-1.913-1.886-3.009c-1.878-4.4-2.264-9.422-1.08-14.057"/>
			<path style="fill:#FFA778;" d="M724.573,359.578c-10.508,2.223-22.109-1.958-28.783-10.372c-0.726-0.915-1.412-1.909-1.66-3.051
				c-0.247-1.142,0.036-2.466,0.962-3.178c0.825-0.633,1.981-0.661,2.983-0.385c1.002,0.276,1.908,0.816,2.853,1.249
				c5.626,2.574,12.22,1.22,18.305,2.336c6.511,1.195,12.404,5.409,15.64,11.185c-3.334,2.378-7.978,2.774-11.667,0.995"/>
		</g>
		<g style="clip-path:url(#SVGID_00000059295389970406447590000005587072587657811887_);">
			<g>
				<g>
					<path style="fill:#FFA778;" d="M73.955,141.335c2.433,0.46,4.858,1.107,7.273,1.511c3.616,0.605,7.289,0.874,10.954,0.773
						c4.128-0.114,8.667-0.391,12.617-1.539c-0.397,0.12-1.037,5.993-1.184,6.637c-0.575,2.527-1.204,5.041-1.889,7.54
						c-1.369,4.999-2.955,9.937-4.755,14.798c-6.556-1.893-13.518-2.369-20.271-1.384c-0.165,0.01-2.413-5.407-2.624-5.872
						c-0.969-2.145-1.864-4.325-2.647-6.546c-1.548-4.391-2.652-8.945-3.076-13.587c-0.092-1.009-0.033-2.257,0.869-2.718
						c0.511-0.262,1.124-0.163,1.688-0.057C71.928,140.984,72.943,141.143,73.955,141.335z"/>
					<path style="fill:#FF7C54;" d="M76.477,152.258c1.117,3.272,3.574,5.913,6.224,8.133c1.554,1.301,3.308,2.541,5.326,2.728
						c2.319,0.215,4.539-1.009,6.327-2.501c1.789-1.493,3.333-3.321,4.273-5.453c0.94-2.132,1.242-4.583,0.603-6.824
						c-0.556-1.947-1.785-3.648-3.24-5.056c-2.19-2.12-4.997-3.675-8.023-4.044c-2.834-0.346-5.928,0.566-8.406,1.955
						c-1.899,1.064-2.728,2.996-3.282,5.025C75.739,148.199,75.814,150.317,76.477,152.258z"/>
				</g>
				<g>
					<polygon style="fill:#F46E5B;" points="73.775,150.682 87.177,154.007 161.243,152.428 167.962,66.306 99.975,63.141 
						87.091,60.747 38.803,30.009 18.08,120.827 					"/>
					<g>
						<path style="fill:#D5CCBF;" d="M153.224,143.292l2.764,5.036l-68.482,2.569l-6.323-2.061l0.724-4.542
							c7.067-3.088,19.069-7.278,34.474-7.676C132.93,136.19,145.897,140.334,153.224,143.292z"/>
						<polygon style="fill:#D5CCBF;" points="159.202,57.757 162.233,70.622 155.987,148.328 153.224,143.292 						"/>
						<path style="fill:#D5CCBF;" d="M81.906,144.294l-0.912,4.504l-5.22-0.275l-48.711-28.07l-1.701-9.224
							c6.343,2.1,13.284,4.843,20.56,8.459C61.344,127.352,73.235,136.428,81.906,144.294z"/>
					</g>
					<g>
						<path style="fill:#FFFFFF;" d="M94.906,58.741l-13,85.552c10.13-2.192,22.928-4.05,37.751-4.082
							c12.949-0.028,24.293,1.344,33.567,3.081c1.993-28.512,3.986-57.023,5.979-85.535c-6.732-2.761-19.031-6.767-34.724-6.05
							C111.39,52.305,101.151,55.949,94.906,58.741z"/>
						<g>
							<path style="fill:#D5CCBF;" d="M126.507,74.176c-0.743,4.066,0.11,8.402,2.339,11.883c1.351,2.11,3.226,3.931,5.513,4.953
								c2.287,1.023,5.003,1.189,7.299,0.186c1.963-0.858,3.509-2.505,4.547-4.379c1.037-1.874,1.604-3.973,1.999-6.078
								c0.581-3.1,0.804-6.325,0.058-9.389c-0.746-3.064-2.56-5.964-5.307-7.512c-2.775-1.563-7.471-1.476-10.262,0.201
								C129.386,66.029,127.174,70.528,126.507,74.176z"/>
							<path style="fill:none;stroke:#D5CCBF;stroke-miterlimit:10;" d="M100.653,68.86c5.17-3.516,15.128-4.297,21.494-2.476"/>
							<path style="fill:none;stroke:#D5CCBF;stroke-miterlimit:10;" d="M99.639,78.194c6.308-3.286,15.13-4.216,21.984-2.315"/>
							<path style="fill:none;stroke:#D5CCBF;stroke-miterlimit:10;" d="M97.59,87.063c6.894-3.255,13.516-4.021,24.998-1.746"/>
						</g>
						<g>
							<path style="fill:#D5CCBF;" d="M98.875,103.949c-5.413,5.793-7.232,15.657-2.58,22.399
								c19.098,16.858,24.547-38.901,0.984-21.446"/>
							<path style="fill:none;stroke:#D5CCBF;stroke-miterlimit:10;" d="M120.275,106.754c8.911-1.033,17.964-0.833,26.821,0.592"/>
							<path style="fill:none;stroke:#D5CCBF;stroke-miterlimit:10;" d="M120.305,116.353c8.821-1.26,17.866-0.942,26.577,0.934"/>
							<path style="fill:none;stroke:#D5CCBF;stroke-miterlimit:10;" d="M118.228,126.037c9.579-1.703,19.862-2.112,28.655,0.76"/>
						</g>
					</g>
					<g>
						<path style="fill:#FFFFFF;" d="M94.906,58.741c-2.194-4.416-7.875-14.343-19.628-21.68
							c-13.636-8.513-27.066-8.308-31.852-8.009c-6.021,27.392-12.042,54.785-18.064,82.177c7.373,2.443,15.794,5.836,24.722,10.607
							c13.565,7.249,24.091,15.432,31.821,22.457C86.239,115.776,90.572,87.259,94.906,58.741z"/>
						<g>
							<path style="fill:#D5CCBF;" d="M88.406,60.446c-0.561,7.264-2.018,14.426-4.444,22.085
								C74.2,74.244,61.205,66.669,48.726,63.798c1.682-7.449,3.365-14.899,5.048-22.348C66.521,43.718,79.335,51.206,88.406,60.446
								z"/>
							<path style="fill:none;stroke:#D5CCBF;stroke-miterlimit:10;" d="M42.576,77.298c5.551,0.655,14.663,2.469,24.332,8.132
								c6.975,4.086,11.908,8.81,15.115,12.423"/>
							<path style="fill:none;stroke:#D5CCBF;stroke-miterlimit:10;" d="M40.928,88.212c6.922,1.24,13.579,2.602,20.088,5.266
								c6.509,2.664,14.569,9.633,18.238,15.633"/>
							<path style="fill:none;stroke:#D5CCBF;stroke-miterlimit:10;" d="M38.872,101.104c13.453,1.206,28.356,9.228,36.772,19.793"
								/>
						</g>
					</g>
					<polyline style="fill:none;stroke:#280805;stroke-linecap:round;stroke-linejoin:round;stroke-miterlimit:10;" points="
						94.906,58.741 81.906,144.294 80.994,148.798 					"/>
				</g>
				<path style="fill:#FFA778;" d="M81.255,165.031c-0.51-6.574,1.741-13.32,6.099-18.269c0.947-1.076,2-2.086,2.687-3.344
					c0.852-1.561,0.502-2.777,0.348-4.401c-0.148-1.565-0.092-3.14,0.197-4.686c0.57-3.049,1.992-5.945,4.105-8.221
					c0.464-0.499,0.974-0.98,1.603-1.241c1.233-0.512,2.568,0.148,2.6,1.516c0.036,1.561,0.457,3.019,0.804,4.554
					c0.275,1.217,0.537,2.436,0.771,3.661c0.175,0.913,0.558,1.793,0.616,2.712c0.159,2.523,0.079,5.087,0.096,7.615
					c0.035,5.129,0.008,10.258-0.08,15.386"/>
			</g>
			<g>
				<path style="fill:#8AABD9;" d="M-34,204.672c19.284,0.478,39.897,6.176,54.891,18.313
					c12.578-23.017,32.112-42.172,55.371-54.297c5.766-3.006,14.175-0.54,20.291,1.672c-3.935,41.345-23.255,80.394-55.743,106.267
					c-18.679,14.875-48.078,7.6-71.002,0.913L-34,204.672z"/>
				<path style="fill:#6480C1;" d="M83.236,221.639c-2.236-3.456-3.881-7.13-6.144-10.593c-2.246-3.438-4.736-6.717-7.442-9.806
					c-2.706-3.089-5.63-5.988-8.743-8.667c-0.842-0.724-9.088-7.737-9.671-7.212c-1.677,1.512-3.279,3.175-4.957,4.687
					c0.324-0.292,4.729,2.594,5.238,2.907c1.772,1.089,3.494,2.261,5.16,3.507c3.332,2.493,6.439,5.288,9.276,8.333
					c5.767,6.19,9.974,13.215,13.419,20.894c0.296,0.659,0.591,1.318,0.886,1.977C81.236,225.489,82.26,223.815,83.236,221.639z"/>
				<g>
					<path style="fill:#6480C1;" d="M91.721,198.319c-5.497-10.159-13.684-18.913-23.067-25.649c-1.826,0.77-3.401,1.883-4.925,3.15
						c11.185,6.257,20.564,15.452,26.442,26.91C90.787,201.206,91.105,199.843,91.721,198.319z"/>
					<path style="fill:#6480C1;" d="M63.219,254.017c-13.795-12.293-25.651-26.758-34.997-42.698
						c-1.526,1.366-3.2,3.307-3.874,5.242c4.022,8.381,9.313,16.077,15.817,22.719c6.504,6.642,13.71,12.551,20.899,18.445
						C61.838,256.495,62.446,255.246,63.219,254.017z"/>
					<path style="fill:none;stroke:#280805;stroke-linecap:round;stroke-linejoin:round;stroke-miterlimit:10;" d="M20.704,223.324
						c-1.647,6.456-1.442,13.374,0.584,19.722"/>
				</g>
			</g>
		</g>
		<g style="clip-path:url(#SVGID_00000059295389970406447590000005587072587657811887_);">
			<g>
				<path style="fill:#66C476;" d="M462.175,505.836c3.82-22.118,15.546-42.786,32.572-57.413c1.578-1.356,3.251-2.69,5.235-3.317
					c1.984-0.628,4.362-0.412,5.848,1.043c2.011,1.97,1.693,5.25,1.076,7.998c-2.879,12.836-9.125,24.902-17.944,34.663
					c5.424-6.748,13.196-11.571,21.65-13.435c2.763-0.609,6.067-0.75,7.98,1.333c1.171,1.275,1.521,3.149,1.259,4.86
					c-0.262,1.711-1.068,3.29-1.972,4.766c-7.44,12.143-22.007,19.299-27.226,32.549"/>
				<path style="fill:none;stroke:#FFFFFF;stroke-linecap:round;stroke-linejoin:round;stroke-miterlimit:10;" d="M497.682,457.046
					c-6.639,9.176-12.736,18.809-17.238,29.202c-4.503,10.392-7.386,21.592-7.425,32.918c9.658-12.491,19.661-25.291,33.289-33.265"
					/>
			</g>
			<g>
				<path style="fill:#66C476;" d="M290.945,509.191c-2.363-16.862-7.017-33.402-13.795-49.021
					c-6.75-15.555-16.015-30.641-29.966-40.277c-3.444-2.379-7.868-4.447-11.675-2.706c-3.189,1.459-4.778,5.256-4.649,8.76
					c0.129,3.504,1.642,6.793,3.195,9.936c7.113,14.392,15.68,28.064,25.528,40.741c-5.335-4.758-11.574-8.498-18.284-10.961
					c-3.37-1.237-7.429-2.065-10.322,0.061c-3.093,2.273-3.298,7.031-1.603,10.475c1.694,3.444,4.787,5.943,7.618,8.534
					c10.35,9.472,18.242,21.606,22.704,34.907"/>
				<path style="fill:none;stroke:#FFFFFF;stroke-linecap:round;stroke-linejoin:round;stroke-miterlimit:10;" d="M242.621,474.235
					c13.898,7.592,25.043,20.104,30.986,34.783c1.132-12.031-0.219-24.29-3.942-35.786c-3.892-12.018-10.281-23.048-16.623-33.973"
					/>
			</g>
			<g>
				<circle style="fill:#8AABD9;" cx="375" cy="530.187" r="110.893"/>
				<path style="fill:#6480C1;" d="M402.398,444.583c3.653-1.357,12.46-7.917,9.981-11.543c-2.551-3.732-11.877-5.662-15.964-6.729
					c-16.671-4.35-34.55-3.969-51.021,1.085c-10.672,3.275-20.733,8.506-29.584,15.306c-7.871,6.047-15.484,12.594-14.805,23.458
					c0.257,4.11,2.551,8.281,6.365,9.831c3.125,1.27,7.154,0.863,9.336,3.436c1.785,2.105,1.437,5.197,1.451,7.957
					c0.014,2.76,1.029,6.111,3.737,6.646c2.634,0.521,4.942-2.254,5.125-4.933c0.183-2.678-1.036-5.221-1.945-7.747
					c-0.909-2.526-1.491-5.469-0.145-7.792c1.89-3.264,6.735-3.563,10.073-1.807c3.338,1.756,5.64,4.931,8.198,7.702
					c14.099,15.275,39.471,18.506,56.948,7.252c2.198-1.415,4.332-3.053,6.855-3.738c2.523-0.685,5.621-0.129,7.019,2.08
					c2.38,3.763-1.563,8.213-4.861,11.205c-8.291,7.523-14.72,17.084-18.559,27.601c-2.961,8.112-4.129,17.945,1.169,24.764
					c4.126,5.311,11.052,7.387,17.43,9.52c6.379,2.133,13.214,5.117,16.108,11.188c1.872,3.925,1.74,8.48,2.789,12.7
					c1.049,4.22,4.137,8.63,8.485,8.599c4.537-0.031,7.465-4.664,9.509-8.715c4.455-8.83,8.91-17.659,13.366-26.489
					c5.626-11.15,11.384-22.83,11.367-35.319c-0.014-9.941-3.899-19.826-10.657-27.116c-6.758-7.29-16.321-11.912-26.232-12.678
					c-3.734-0.289-7.592-0.068-11.105-1.365c-3.513-1.297-6.637-4.743-5.988-8.431c0.658-3.738,4.565-5.775,7.602-8.052
					c3.036-2.277,5.553-6.862,2.927-9.602c-1.612-1.973-4.929-1.054-6.724,0.754c-1.795,1.808-2.894,4.284-4.947,5.793
					c-5.466,4.02-13.222-1.093-19.872,0.259c-4.347,0.884-7.582,4.387-10.864,7.371c-3.282,2.984-7.558,5.757-11.867,4.702
					c-4.562-1.118-7.18-6.515-6.242-11.118s4.659-8.244,8.886-10.291c4.228-2.046,8.96-2.748,13.608-3.424
					c2.412-0.351,4.824-0.702,7.236-1.053C398.553,445.565,400.536,445.275,402.398,444.583z"/>
				<path style="fill:#6480C1;" d="M470.833,475.686c-2.219,1.401-5.209,0.645-7.396-0.804c-2.187-1.449-3.919-3.504-6.096-4.968
					c-4.44-2.987-10.197-3.208-14.988-5.591c-2.591-1.289-5.084-3.694-4.836-6.578c0.183-2.122,1.863-3.879,3.8-4.768
					c3.301-1.515,7.596-1.418,11.156-1.876C459.524,458.493,465.82,466.785,470.833,475.686z"/>
				<path style="fill:#6480C1;" d="M282.506,470.758c2.591,0.392,5.004,2.785,5.913,5.244c0.908,2.458,1.454,5.171,3.221,7.107
					c1.755,1.923,4.515,2.744,7.107,2.502c1.284-0.12,2.866-0.355,3.604,0.702c0.444,0.636,0.342,1.548-0.111,2.177
					c-0.452,0.629-1.191,1.003-1.946,1.178c-2.022,0.468-4.088-0.343-6.099-0.855c-2.012-0.513-4.431-0.623-5.869,0.874
					c-1.06,1.104-1.261,2.764-1.268,4.295c-0.007,1.531,0.111,3.124-0.496,4.53c-0.636,1.472-1.983,2.515-3.382,3.298
					c-4.188,2.343-9.354,2.866-13.926,1.41C272.36,493.306,275.283,480.581,282.506,470.758z"/>
			</g>
		</g>
	</g>
</g>
</svg>
